<svg width="100" height="34" viewBox="0 0 150 200" fill="none" xmlns="http://www.w3.org/2000/svg">
<path d="M276.119 70.5059C274.909 70.5059 273.958 70.6782 273.266 71.0226C272.632 71.3671 272.171 72.1421 271.883 73.3477C271.653 74.5533 271.537 76.4765 271.537 79.1173V87.5565C271.537 89.7381 271.191 91.6326 270.5 93.24C269.866 94.7901 269.117 96.0531 268.252 97.0291C267.388 98.005 266.581 98.7514 265.832 99.268C266.466 99.7273 267.215 100.445 268.079 101.421C269.001 102.339 269.808 103.488 270.5 104.865C271.191 106.186 271.537 107.679 271.537 109.343V119.677C271.537 122.26 271.653 124.155 271.883 125.361C272.171 126.566 272.632 127.341 273.266 127.686C273.958 128.03 274.909 128.202 276.119 128.202H279.318V138.708H272.488C270.874 138.708 269.261 138.68 267.647 138.622C266.091 138.565 264.65 138.249 263.325 137.675C261.999 137.158 260.933 136.154 260.126 134.661C259.377 133.226 259.002 131.13 259.002 128.375V114.166C259.002 112.443 258.743 110.836 258.224 109.343C257.706 107.793 256.928 106.53 255.89 105.554C254.853 104.578 253.556 104.09 252 104.09V94.1012C253.556 94.0438 254.853 93.5558 255.89 92.6372C256.928 91.6613 257.706 90.427 258.224 88.9343C258.743 87.3843 259.002 85.7481 259.002 84.0258V70.4198C259.002 67.6642 259.377 65.5687 260.126 64.1335C260.875 62.6982 261.884 61.6936 263.152 61.1195C264.477 60.5454 265.947 60.2296 267.561 60.1722C269.174 60.0574 270.817 60 272.488 60H279.318V70.5059H276.119ZM340.571 100.043C340.571 105.899 339.851 111.381 338.41 116.491C337.027 121.6 335.24 126.136 333.05 130.097C330.86 134.116 328.526 137.417 326.048 140L316.107 135.436C318.354 132.853 320.371 129.81 322.158 126.308C323.945 122.863 325.357 118.959 326.394 114.596C327.431 110.176 327.95 105.325 327.95 100.043C327.95 94.7614 327.431 89.939 326.394 85.5759C325.357 81.1554 323.945 77.2228 322.158 73.7783C320.371 70.2763 318.354 67.2623 316.107 64.7363L326.048 60.0861C328.526 62.6695 330.86 65.9706 333.05 69.9892C335.24 74.0079 337.027 78.5719 338.41 83.6814C339.851 88.7334 340.571 94.1873 340.571 100.043Z" fill="#00A3FF"/>
</svg>
